 http://img62.imageshack.us/img62/913/contagionl.jpg


Verenigde Staten / Verenigde Arabische Emiraten
Actie / Sciencefiction
105 minuten

geregisseerd door Steven Soderbergh
met Matt Damon, Marion Cotillard en Kate Winslet

In deze film volgen we de razendsnelle verspreiding van een dodelijk virus. Een paar dagen na de besmetting volgt de dood. Terwijl deze pandemie groeit, is de hele medische wereld in rep en roer om een geneesmiddel te vinden en om de paniek onder de mensen te bedwingen. Aan de ene andere kant zien we de mensen die voor hun overleving vechen en voor hun geliefden zorgen. Een totaalbeeld van een gemeenschap die totaal ineenklapt door dit luchtgedragen virus.



Nl subs




Screenshots:
 
http://www.hotimg.com/image/PrmWbda 
http://www.hotimg.com/image/8yAwu4f 
http://www.hotimg.com/image/fpJTvEv 
http://www.hotimg.com/image/PFw659d




INFO;

Format                                   : Matroska
Format version                           : Version 2
File size                                : 2.61 GiB
Duration                                 : 1h 42mn
Overall bit rate                         : 3 645 Kbps
Encoded date                             : UTC 2012-01-13 19:43:43
Writing application                      : mkvmerge v5.2.1 ('A Far Off Place') built on Jan  2 2012 23:21:10
Writing library                          : libebml v1.2.3 + libmatroska v1.3.0

Video
ID                                       : 1
Format                                   : MPEG-4 Visual
Format profile                           : Advanced Simple@L5
Format settings, BVOP                    : Yes
Format settings, QPel                    : No
Format settings, GMC                     : No warppoints
Format settings, Matrix                  : Custom
Codec ID                                 : XVID
Codec ID/Hint                            : XviD
Duration                                 : 1h 42mn
Bit rate                                 : 3 125 Kbps
Width                                    : 1 280 pixels
Height                                   : 720 pixels
Display aspect ratio                     : 16:9
Frame rate                               : 23.976 fps
Color space                              : YUV
Chroma subsampling                       : 4:2:0
Bit depth                                : 8 bits
Scan type                                : Progressive
Compression mode                         : Lossy
Bits/(Pixel*Frame)                       : 0.141
Stream size                              : 2.24 GiB (86%)
Writing library                          : XviD 1.2.1 (UTC 2008-12-04)
Default                                  : Yes
Forced                                   : No

Audio
ID                                       : 2
Format                                   : AC-3
Format/Info                              : Audio Coding 3
Mode extension                           : CM (complete main)
Muxing mode                              : Header stripping
Codec ID                                 : A_AC3
Duration                                 : 1h 42mn
Bit rate mode                            : Constant
Bit rate                                 : 448 Kbps
Channel(s)                               : 6 channels
Channel positions                        : Front: L C R, Side: L R, LFE
Sampling rate                            : 48.0 KHz
Bit depth                                : 16 bits
Compression mode                         : Lossy
Stream size                              : 329 MiB (12%)
Default                                  : Yes
Forced                                   : No

Text
ID                                       : 3
Format                                   : UTF-8
Codec ID                                 : S_TEXT/UTF8
Codec ID/Info                            : UTF-8 Plain Text
Language                                 : Dutch
Default                                  : Yes
Forced                                   : No




 
http://www.imdb.com/title/tt1598778/ 
http://www.moviemeter.nl/film/78156




Deze film wordt u aangeboden door het DutchReleaseTeam.
Voor de reviews van de nieuwste films, muziek, series, games etc
ga dan eens naar http://www.hetmultimediacafe.be/